
<svg width="134px" height="22px" viewBox="0 0 134 22" version="1.1" xmlns="http://www.w3.org/2000/svg" xmlns:xlink="http://www.w3.org/1999/xlink">
    <g id="Page-1" stroke="none" stroke-width="1" fill="none" fill-rule="evenodd" opacity="0.200000003">
        <path d="M42.8551867,13.3716683 L47.8229305,13.3716683 L45.339166,6.43188009 L42.8551867,13.3716683 Z M48.98888,16.6342882 L41.6892372,16.6342882 L40.1937803,20.829148 L36.4933728,20.829148 L43.387468,2.46986081 L47.4427296,2.46986081 L54.2861312,20.829148 L50.4843369,20.829148 L48.98888,16.6342882 Z M56.0858992,20.8292578 L56.0858992,8.08908562 L59.4567992,8.08908562 L59.4567992,20.8292578 L56.0858992,20.8292578 Z M57.7587833,1.77057121 C58.9500795,1.77057121 59.8372149,2.70281104 59.8372149,3.91990193 C59.8372149,5.05930617 58.9500795,6.01744155 57.7587833,6.01744155 C56.6181805,6.01744155 55.6803516,5.05930617 55.6803516,3.91990193 C55.6803516,2.70281104 56.6181805,1.77057121 57.7587833,1.77057121 Z M70.4064781,11.5071667 C70.0769707,11.42948 69.7221165,11.4035845 69.392609,11.4035845 C67.6692464,11.4035845 66.1737894,12.2581376 66.1737894,15.003066 L66.1737894,20.8293455 L62.8028895,20.8293455 L62.8028895,8.0891734 L66.0724025,8.0891734 L66.0724025,9.97932917 C66.8328043,8.29611836 68.5563818,7.98537175 69.6209444,7.98537175 C69.8997584,7.98537175 70.1276641,8.0112673 70.4064781,8.03716285 L70.4064781,11.5071667 Z M78.9224416,10.8337946 C77.2244257,10.8337946 75.8050089,12.076781 75.8050089,14.4330567 C75.8050089,16.7118652 77.2244257,18.0584338 78.9224416,18.0584338 C80.6460191,18.0584338 82.0147424,16.7897713 82.0147424,14.4330567 C82.0147424,12.076781 80.6460191,10.8337946 78.9224416,10.8337946 Z M72.5354959,20.8292578 L72.5354959,2.08131782 L75.8557024,2.08131782 L75.8557024,9.48722592 C76.4386771,8.58088164 77.7818389,7.75244346 79.6323648,7.75244346 C83.2820788,7.75244346 85.3858571,10.6007346 85.3858571,14.4073806 C85.3858571,18.2655982 83.0537434,21.1400044 79.5056311,21.1400044 C77.7818389,21.1400044 76.4893706,20.3890334 75.8050089,19.2755247 L75.8050089,20.8292578 L72.5354959,20.8292578 Z M95.8287089,13.0090428 C95.7526687,11.7660563 94.9669202,10.4973938 93.0407837,10.4973938 C91.2918595,10.4973938 90.3288986,11.8696385 90.2526436,13.0090428 L95.8287089,13.0090428 Z M98.9717031,17.178007 C98.3633817,19.4050244 96.3356435,21.2174935 93.2940362,21.2174935 C89.847096,21.2174935 86.8561821,18.7058445 86.8561821,14.4074025 C86.8561821,10.3420205 89.7964025,7.70067431 92.9900902,7.70067431 C96.8679247,7.70067431 99.1491302,10.1866472 99.1491302,14.3036009 C99.1491302,14.7958358 99.0984368,15.2878513 99.0984368,15.3653185 L90.1768183,15.3653185 C90.2526436,17.0226337 91.6467137,18.2656202 93.3193829,18.2656202 C94.9164415,18.2656202 95.7526687,17.4628581 96.1582164,16.3236733 L98.9717031,17.178007 Z M108.527248,15.6761309 L108.527248,15.1064288 L105.713761,15.5466532 C104.826625,15.6761309 104.16761,16.1422508 104.16761,17.1521773 C104.16761,17.9029288 104.699892,18.6282237 105.789801,18.6282237 C107.209003,18.6282237 108.527248,17.9290438 108.527248,15.6761309 Z M104.522465,13.5011241 L107.589419,13.0350042 C108.299127,12.9312025 108.527248,12.5688843 108.527248,12.1286599 C108.527248,11.2223156 107.842671,10.4713446 106.423469,10.4713446 C104.928012,10.4713446 104.142264,11.4292606 104.040877,12.5429887 L101.049963,11.8953805 C101.252952,9.90186197 103.027223,7.70052069 106.398122,7.70052069 C110.351997,7.70052069 111.822107,9.97932917 111.822107,12.5429887 L111.822107,18.8092731 C111.822107,19.5086724 111.898148,20.3891212 111.974188,20.8291261 L108.881887,20.8291261 C108.806062,20.4924839 108.755368,19.7935235 108.755368,19.301508 C108.121485,20.3112151 106.930189,21.1918832 105.080093,21.1918832 C102.418901,21.1918832 100.79671,19.3274036 100.79671,17.3593417 C100.79671,15.0546377 102.444248,13.8375468 104.522465,13.5011241 Z M114.965252,20.8292358 L114.965252,8.08906368 L118.184072,8.08906368 L118.184072,9.64257728 C118.868433,8.39959083 120.465277,7.72652597 121.834,7.72652597 C123.557578,7.72652597 124.90074,8.47749694 125.534408,9.84996114 C126.52293,8.29622808 127.840745,7.72652597 129.488282,7.72652597 C131.79505,7.72652597 134,9.15078126 134,12.5687745 L134,20.8292358 L130.730487,20.8292358 L130.730487,13.2679544 C130.730487,11.8954902 130.071257,10.8596682 128.525322,10.8596682 C127.080558,10.8596682 126.218769,11.9992919 126.218769,13.3717561 L126.218769,20.8292358 L122.873001,20.8292358 L122.873001,13.2679544 C122.873001,11.8954902 122.188855,10.8596682 120.668051,10.8596682 C119.172594,10.8596682 118.336152,11.9472813 118.336152,13.3717561 L118.336152,20.8292358 L114.965252,20.8292358 Z M24.2988689,18.1233482 C25.8542558,16.679781 25.9702493,14.2124617 24.5574914,12.6233966 L23.3197978,11.233815 C22.175973,9.94979068 20.210098,9.9853422 19.0742209,11.2768279 C19.0662732,11.2858255 19.0583255,11.2946037 19.0503778,11.3036013 L16.0687005,14.6570751 L18.9154817,17.8591258 C19.6000581,18.6289699 20.536813,19.0803864 21.5536894,19.1304218 C22.5697065,19.1776044 23.5453407,18.8225281 24.2988689,18.1233482 Z M9.43322793,17.8591258 L16.9745238,9.37723566 C17.6591003,8.60739166 18.0092288,7.61129076 17.9602537,6.57239637 C17.9114935,5.53372144 17.4696442,4.57646387 16.7161161,3.87706454 C16.0089853,3.22089762 15.1068137,2.86560188 14.1582446,2.86560188 C14.095737,2.86560188 14.0334442,2.8669186 13.9709366,2.86999096 C12.954275,2.92002643 12.0173053,3.37144294 11.3329437,4.14128694 L3.79121821,12.6233966 C2.37846035,14.2124617 2.49445385,16.679781 4.04984075,18.1233482 C4.80336889,18.8227476 5.77943271,19.1780433 6.79502024,19.1304218 C7.81189658,19.0803864 8.74865149,18.6289699 9.43322793,17.8591258 Z M26.6322714,10.6959337 C29.0857487,13.4555655 28.8844785,17.7384262 26.1844076,20.2439305 C24.9570246,21.3831153 23.3906827,22 21.7440047,22 C21.6359589,22 21.5279131,21.9973666 21.4190081,21.9918802 C19.6539736,21.9051959 18.0279166,21.1217458 16.8396277,19.785272 L14.1743548,16.7877523 L11.509082,19.7854915 C10.3210078,21.1217458 8.69452119,21.9051959 6.92970158,21.9918802 C6.82101137,21.9973666 6.71275077,22 6.60470498,22 C4.95781209,22 3.39168505,21.3831153 2.16430198,20.2439305 C-0.535768915,17.7384262 -0.737039117,13.4555655 1.71557898,10.6970309 L9.25708966,2.2149213 C10.4451638,0.878666985 12.0714356,0.09499739 13.8362552,0.00831313065 C15.6012897,-0.0803462131 17.2937207,0.542683185 18.6016548,1.75626282 C18.7109894,1.85786994 26.6322714,10.6959337 26.6322714,10.6959337 Z" id="logo" fill="#000000"></path>
    </g>
</svg>